<?xml version="1.0" encoding="utf-8"?>
<!-- Generator: Adobe Illustrator 23.0.0, SVG Export Plug-In . SVG Version: 6.00 Build 0)  -->
<svg version="1.1" xmlns="http://www.w3.org/2000/svg" xmlns:xlink="http://www.w3.org/1999/xlink" x="0px" y="0px"
	 viewBox="0 0 512 512" style="enable-background:new 0 0 512 512;" xml:space="preserve">
<style type="text/css">
	.st0{fill:none;stroke:#0071BC;stroke-width:17.034;stroke-miterlimit:10;}
	.st1{fill:none;stroke:url(#SVGID_1_);stroke-width:17.034;stroke-miterlimit:10;}
	.st2{fill:none;stroke:url(#SVGID_2_);stroke-width:17.034;stroke-miterlimit:10;}
	.st3{fill:none;stroke:url(#SVGID_3_);stroke-width:17.034;stroke-miterlimit:10;}
	.st4{fill:none;stroke:url(#SVGID_4_);stroke-width:16.3881;stroke-miterlimit:10;}
	.st5{fill:none;stroke:#0071BC;stroke-width:15.2356;stroke-miterlimit:10;}
	.st6{fill:none;stroke:url(#SVGID_5_);stroke-width:14.4873;stroke-miterlimit:10;}
	.st7{fill:none;stroke:url(#SVGID_6_);stroke-width:17.034;stroke-miterlimit:10;}
	.st8{fill:none;stroke:url(#SVGID_7_);stroke-width:17.034;stroke-miterlimit:10;}
	.st9{fill:url(#SVGID_8_);}
	.st10{fill:none;stroke:url(#SVGID_9_);stroke-width:17.034;stroke-miterlimit:10;}
	.st11{fill:none;stroke:url(#SVGID_10_);stroke-width:17.034;stroke-miterlimit:10;}
</style>
<g id="Layer_1">
	<path class="st0" d="M135.69,388.75"/>
	<linearGradient id="SVGID_1_" gradientUnits="userSpaceOnUse" x1="64.6295" y1="51.8004" x2="269.2771" y2="256.4479">
		<stop  offset="0" style="stop-color:#00BCBF"/>
		<stop  offset="0.8327" style="stop-color:#152B58"/>
		<stop  offset="1" style="stop-color:#1B1464"/>
	</linearGradient>
	<path class="st1" d="M394.41,101.84V65.6c0-8.88-7.2-16.07-16.07-16.07H85.6c-8.88,0-16.07,7.2-16.07,16.07v307.08
		c0,8.88,7.2,16.07,16.07,16.07h42.85"/>
	<linearGradient id="SVGID_2_" gradientUnits="userSpaceOnUse" x1="391.9186" y1="93.2147" x2="391.9186" y2="93.2147">
		<stop  offset="0" style="stop-color:#00BCBF"/>
		<stop  offset="0.8327" style="stop-color:#152B58"/>
		<stop  offset="1" style="stop-color:#1B1464"/>
	</linearGradient>
	<path class="st2" d="M391.92,93.21"/>
	<linearGradient id="SVGID_3_" gradientUnits="userSpaceOnUse" x1="134.1632" y1="132.7953" x2="486.3311" y2="484.9633">
		<stop  offset="0" style="stop-color:#00BCBF"/>
		<stop  offset="0.8327" style="stop-color:#152B58"/>
		<stop  offset="1" style="stop-color:#1B1464"/>
	</linearGradient>
	<path class="st3" d="M167.4,499h285.7c9.54,0,17.27-7.73,17.27-17.27v-345.7c0-9.54-7.73-17.27-17.27-17.27H167.4
		c-9.54,0-17.27,7.73-17.27,17.27v345.7C150.13,491.27,157.86,499,167.4,499z"/>
	<linearGradient id="SVGID_4_" gradientUnits="userSpaceOnUse" x1="243.1356" y1="175.2373" x2="317.194" y2="175.2373">
		<stop  offset="0" style="stop-color:#29ABE2"/>
		<stop  offset="0.2017" style="stop-color:#24A2D9"/>
		<stop  offset="0.5369" style="stop-color:#1788C1"/>
		<stop  offset="0.9621" style="stop-color:#025F9B"/>
		<stop  offset="1" style="stop-color:#005B97"/>
	</linearGradient>
	<path class="st4" d="M270.06,202.41h20.21c10.34,0,18.73-8.39,18.73-18.73V166.8c0-10.34-8.39-18.73-18.73-18.73h-20.21
		c-10.34,0-18.73,8.39-18.73,18.73v16.88C251.33,194.02,259.71,202.41,270.06,202.41z"/>
	<path class="st5" d="M199.3,278.5h14.79c9.62,0,17.41-7.8,17.41-17.41v-99.76c0-9.62-7.8-17.41-17.41-17.41H199.3
		c-9.62,0-17.41,7.8-17.41,17.41v99.76C181.89,270.7,189.68,278.5,199.3,278.5z"/>
	<linearGradient id="SVGID_5_" gradientUnits="userSpaceOnUse" x1="247.7761" y1="254.3089" x2="315.7437" y2="254.3089">
		<stop  offset="0" style="stop-color:#29ABE2"/>
		<stop  offset="0.2017" style="stop-color:#24A2D9"/>
		<stop  offset="0.5369" style="stop-color:#1788C1"/>
		<stop  offset="0.9621" style="stop-color:#025F9B"/>
		<stop  offset="1" style="stop-color:#005B97"/>
	</linearGradient>
	<path class="st6" d="M271.58,278.5h20.37c9.14,0,16.56-7.41,16.56-16.56v-15.27c0-9.14-7.41-16.56-16.56-16.56h-20.37
		c-9.14,0-16.56,7.41-16.56,16.56v15.27C255.02,271.09,262.43,278.5,271.58,278.5z"/>
	<linearGradient id="SVGID_6_" gradientUnits="userSpaceOnUse" x1="235.7235" y1="235.3826" x2="386.4742" y2="386.1334">
		<stop  offset="0" style="stop-color:#00BCBF"/>
		<stop  offset="0.8327" style="stop-color:#152B58"/>
		<stop  offset="1" style="stop-color:#1B1464"/>
	</linearGradient>
	<polyline class="st7" points="168.87,310.76 252.15,310.76 453.33,310.76 	"/>
	<linearGradient id="SVGID_7_" gradientUnits="userSpaceOnUse" x1="31.8098" y1="16.737" x2="286.1158" y2="271.043">
		<stop  offset="0" style="stop-color:#00BCBF"/>
		<stop  offset="0.8327" style="stop-color:#152B58"/>
		<stop  offset="1" style="stop-color:#1B1464"/>
	</linearGradient>
	<path class="st8" d="M427.78,101.84l-0.11-68.79c0-11.03-8.68-19.98-19.38-19.98H55.38C44.68,13.07,36,22.01,36,33.05l1.59,369.02
		c0,11.03,8.68,19.98,19.38,19.98h69.64"/>
	<linearGradient id="SVGID_8_" gradientUnits="userSpaceOnUse" x1="94.8953" y1="93.1197" x2="137.695" y2="93.1197">
		<stop  offset="0" style="stop-color:#29ABE2"/>
		<stop  offset="0.2017" style="stop-color:#24A2D9"/>
		<stop  offset="0.5369" style="stop-color:#1788C1"/>
		<stop  offset="0.9621" style="stop-color:#025F9B"/>
		<stop  offset="1" style="stop-color:#005B97"/>
	</linearGradient>
	<circle class="st9" cx="116.3" cy="93.12" r="21.4"/>
</g>
<g id="Layer_2">
	<linearGradient id="SVGID_9_" gradientUnits="userSpaceOnUse" x1="196.1195" y1="387.0439" x2="424.3748" y2="387.0439">
		<stop  offset="0" style="stop-color:#00BCBF"/>
		<stop  offset="0.8327" style="stop-color:#152B58"/>
		<stop  offset="1" style="stop-color:#1B1464"/>
	</linearGradient>
	<path class="st10" d="M415.86,329.98c0,58.33-47.28,105.61-105.61,105.61s-105.61-47.28-105.61-105.61"/>
	<linearGradient id="SVGID_10_" gradientUnits="userSpaceOnUse" x1="230.683" y1="370.7223" x2="393.6517" y2="370.7223">
		<stop  offset="0" style="stop-color:#00BCBF"/>
		<stop  offset="0.8327" style="stop-color:#152B58"/>
		<stop  offset="1" style="stop-color:#1B1464"/>
	</linearGradient>
	<path class="st11" d="M385.13,329.98c0,40.3-32.67,72.97-72.97,72.97s-72.97-32.67-72.97-72.97"/>
</g>
</svg>
